<svg xmlns="http://www.w3.org/2000/svg" viewBox="0 0 1366 633" preserveAspectRatio="xMidYMid" width="1366" height="633" style="shape-rendering: auto; display: block; background: rgb(255, 255, 255);"><g data-idx="1"><linearGradient y2="0" y1="0" x2="1" x1="0" id="lg-nq4q5u6dq7r" data-idx="2">
  <stop offset="0" stop-color="#ff00ff" data-idx="3"></stop>
  <stop offset="1" stop-color="#00ffff" data-idx="4"></stop>
</linearGradient><path opacity="0.4" fill="url(#lg-nq4q5u6dq7r)" d="M 0 0 L 0 361.225 Q 136.6 434.542 273.2 392.87 T 546.4 285.196 T 819.6 300.824 T 1092.8 271.39 T 1366 159.627 L 1366 0 Z" data-idx="5">
  
</path><path opacity="0.4" fill="url(#lg-nq4q5u6dq7r)" d="M 0 0 L 0 375.938 Q 136.6 404.844 273.2 381.613 T 546.4 361.811 T 819.6 332.979 T 1092.8 229.758 T 1366 192.461 L 1366 0 Z" data-idx="7">
  
</path><path opacity="0.4" fill="url(#lg-nq4q5u6dq7r)" d="M 0 0 L 0 453.145 Q 136.6 425.083 273.2 391.594 T 546.4 333.575 T 819.6 342.12 T 1092.8 236.137 T 1366 195.463 L 1366 0 Z" data-idx="9">
  
</path><path opacity="0.4" fill="url(#lg-nq4q5u6dq7r)" d="M 0 0 L 0 394.765 Q 136.6 390.414 273.2 356.054 T 546.4 306.37 T 819.6 334.928 T 1092.8 246.928 T 1366 248.438 L 1366 0 Z" data-idx="11">
  
</path><path opacity="0.4" fill="url(#lg-nq4q5u6dq7r)" d="M 0 0 L 0 447.004 Q 136.6 446.767 273.2 407.745 T 546.4 296.082 T 819.6 251.248 T 1092.8 252.691 T 1366 213.581 L 1366 0 Z" data-idx="13">
  
</path><g data-idx="15"></g></g><text data-watermark="true" text-anchor="middle" dominant-baseline="middle" stroke-opacity="0.1" fill="black" fill-opacity="0.1" stroke="white" stroke-width="1" font-size="15.0" x="683.0" y="316.5" data-idx="16" style="opacity: 1; font-size: 15px;">LOADING.IO</text></svg>